<svg width="11" height="14" viewBox="0 0 11 14" fill="none" xmlns="http://www.w3.org/2000/svg">
<path d="M7.52431 8.92424H8.36068C9.30227 8.92424 10.2224 9.63432 10.0658 10.5477L9.89533 11.4134C9.66104 12.4212 9.13176 13.0368 8.19017 13.125H2.82063C1.87905 13.0368 1.37176 12.2695 1.11548 11.4134L0.944961 10.5477C0.737443 9.66159 1.70853 8.92424 2.65012 8.92424H3.46348M2.61176 3.80836C2.41907 3.80836 2.22656 3.97265 2.22656 4.17509V4.90839C2.22656 5.11067 2.39912 5.27528 2.61176 5.27528C2.61176 5.27528 3.18946 6.74172 3.57449 7.2919C3.81304 7.63281 4.15219 8.45118 5.50012 8.45118C6.84805 8.45118 7.18703 7.63281 7.42575 7.2919C7.81095 6.74172 8.38848 5.27528 8.38848 5.27528C8.60095 5.27528 8.77368 5.11067 8.77368 4.90839V4.17509C8.77368 3.97265 8.60095 3.80836 8.38848 3.80836V3.25834C8.38848 1.97503 7.62594 0.875 5.50012 0.875C3.3818 0.875 2.61176 1.97487 2.61176 3.25834V3.80836Z" stroke="white" stroke-miterlimit="10" stroke-linecap="round" stroke-linejoin="round"/>
</svg>
